<svg xmlns="http://www.w3.org/2000/svg" xmlns:xlink="http://www.w3.org/1999/xlink" width="250" zoomAndPan="magnify" viewBox="0 0 187.5 74.999997" height="100" preserveAspectRatio="xMidYMid meet" version="1.0"><defs><g/><clipPath id="8a571998b0"><path d="M 0.75 15.6875 L 30 15.6875 L 30 59.1875 L 0.75 59.1875 Z M 0.75 15.6875 " clip-rule="nonzero"/></clipPath><clipPath id="e10d5432cf"><path d="M 0.75 15.6875 L 30 15.6875 L 30 49 L 0.75 49 Z M 0.75 15.6875 " clip-rule="nonzero"/></clipPath><clipPath id="ef56cde5e3"><path d="M 39 15.6875 L 48 15.6875 L 48 25 L 39 25 Z M 39 15.6875 " clip-rule="nonzero"/></clipPath><clipPath id="4dcbe99d63"><path d="M 18 16 L 48 16 L 48 59 L 18 59 Z M 18 16 " clip-rule="nonzero"/></clipPath><clipPath id="1efb594c4f"><path d="M 18 16 L 48 16 L 48 49 L 18 49 Z M 18 16 " clip-rule="nonzero"/></clipPath></defs><g clip-path="url(#8a571998b0)"><path fill="#a239c2" d="M 11.988281 17.871094 L 27.175781 32.917969 C 27.480469 33.222656 27.753906 33.550781 27.996094 33.90625 C 28.234375 34.261719 28.4375 34.640625 28.601562 35.035156 C 28.769531 35.429688 28.894531 35.839844 28.976562 36.257812 C 29.0625 36.679688 29.105469 37.101562 29.105469 37.53125 C 29.105469 37.960938 29.0625 38.382812 28.976562 38.804688 C 28.894531 39.222656 28.769531 39.632812 28.601562 40.027344 C 28.4375 40.421875 28.234375 40.800781 27.996094 41.15625 C 27.753906 41.511719 27.480469 41.839844 27.175781 42.144531 L 11.988281 57.191406 C 7.839844 61.300781 0.746094 58.390625 0.75 52.574219 L 0.75 22.476562 C 0.746094 16.671875 7.839844 13.761719 11.988281 17.871094 Z M 11.988281 17.871094 " fill-opacity="1" fill-rule="nonzero"/></g><g clip-path="url(#e10d5432cf)"><path fill="#3d226a" d="M 11.988281 17.871094 C 7.863281 13.785156 0.851562 16.640625 0.753906 22.382812 C 0.753906 22.382812 24.652344 44.785156 20.851562 48.4375 L 27.191406 42.15625 C 27.496094 41.855469 27.769531 41.523438 28.007812 41.167969 C 28.25 40.8125 28.453125 40.4375 28.617188 40.042969 C 28.78125 39.644531 28.90625 39.238281 28.992188 38.816406 C 29.074219 38.398438 29.117188 37.972656 29.117188 37.542969 C 29.117188 37.117188 29.074219 36.691406 28.992188 36.273438 C 28.90625 35.851562 28.78125 35.445312 28.617188 35.046875 C 28.453125 34.652344 28.25 34.277344 28.007812 33.921875 C 27.769531 33.5625 27.496094 33.234375 27.191406 32.929688 Z M 11.988281 17.871094 " fill-opacity="1" fill-rule="nonzero"/></g><g clip-path="url(#ef56cde5e3)"><path fill="#254bff" d="M 48 20.003906 C 48 20.285156 47.972656 20.5625 47.917969 20.835938 C 47.863281 21.109375 47.78125 21.375 47.671875 21.636719 C 47.5625 21.894531 47.433594 22.140625 47.273438 22.371094 C 47.117188 22.605469 46.9375 22.820312 46.738281 23.019531 C 46.539062 23.214844 46.324219 23.394531 46.085938 23.546875 C 45.851562 23.703125 45.605469 23.835938 45.34375 23.941406 C 45.082031 24.050781 44.8125 24.128906 44.535156 24.183594 C 44.257812 24.238281 43.980469 24.265625 43.695312 24.265625 C 43.414062 24.265625 43.132812 24.238281 42.855469 24.183594 C 42.582031 24.128906 42.3125 24.050781 42.050781 23.941406 C 41.789062 23.835938 41.542969 23.703125 41.304688 23.546875 C 41.070312 23.394531 40.855469 23.214844 40.652344 23.019531 C 40.453125 22.820312 40.277344 22.605469 40.117188 22.371094 C 39.960938 22.140625 39.828125 21.894531 39.722656 21.636719 C 39.613281 21.375 39.53125 21.109375 39.476562 20.835938 C 39.421875 20.5625 39.394531 20.285156 39.394531 20.003906 C 39.394531 19.722656 39.421875 19.445312 39.476562 19.171875 C 39.53125 18.898438 39.613281 18.628906 39.722656 18.371094 C 39.828125 18.113281 39.960938 17.867188 40.117188 17.636719 C 40.277344 17.402344 40.453125 17.1875 40.652344 16.988281 C 40.855469 16.792969 41.070312 16.613281 41.304688 16.457031 C 41.542969 16.304688 41.789062 16.171875 42.050781 16.066406 C 42.3125 15.957031 42.582031 15.875 42.855469 15.820312 C 43.132812 15.765625 43.414062 15.738281 43.695312 15.738281 C 43.980469 15.738281 44.257812 15.765625 44.535156 15.820312 C 44.8125 15.875 45.082031 15.957031 45.34375 16.066406 C 45.605469 16.171875 45.851562 16.304688 46.085938 16.457031 C 46.324219 16.613281 46.539062 16.792969 46.738281 16.988281 C 46.9375 17.1875 47.117188 17.402344 47.273438 17.636719 C 47.433594 17.867188 47.5625 18.113281 47.671875 18.371094 C 47.78125 18.628906 47.863281 18.898438 47.917969 19.171875 C 47.972656 19.445312 48 19.722656 48 20.003906 Z M 48 20.003906 " fill-opacity="1" fill-rule="nonzero"/><path fill="#254bff" d="M 48 20.003906 C 48 20.285156 47.972656 20.5625 47.917969 20.835938 C 47.863281 21.109375 47.78125 21.375 47.671875 21.636719 C 47.5625 21.894531 47.433594 22.140625 47.273438 22.371094 C 47.117188 22.605469 46.9375 22.820312 46.738281 23.019531 C 46.539062 23.214844 46.324219 23.394531 46.085938 23.546875 C 45.851562 23.703125 45.605469 23.835938 45.34375 23.941406 C 45.082031 24.050781 44.8125 24.128906 44.535156 24.183594 C 44.257812 24.238281 43.980469 24.265625 43.695312 24.265625 C 43.414062 24.265625 43.132812 24.238281 42.855469 24.183594 C 42.582031 24.128906 42.3125 24.050781 42.050781 23.941406 C 41.789062 23.835938 41.542969 23.703125 41.304688 23.546875 C 41.070312 23.394531 40.855469 23.214844 40.652344 23.019531 C 40.453125 22.820312 40.277344 22.605469 40.117188 22.371094 C 39.960938 22.140625 39.828125 21.894531 39.722656 21.636719 C 39.613281 21.375 39.53125 21.109375 39.476562 20.835938 C 39.421875 20.5625 39.394531 20.285156 39.394531 20.003906 C 39.394531 19.722656 39.421875 19.445312 39.476562 19.171875 C 39.53125 18.898438 39.613281 18.628906 39.722656 18.371094 C 39.828125 18.113281 39.960938 17.867188 40.117188 17.636719 C 40.277344 17.402344 40.453125 17.1875 40.652344 16.988281 C 40.855469 16.792969 41.070312 16.613281 41.304688 16.457031 C 41.542969 16.304688 41.789062 16.171875 42.050781 16.066406 C 42.3125 15.957031 42.582031 15.875 42.855469 15.820312 C 43.132812 15.765625 43.414062 15.738281 43.695312 15.738281 C 43.980469 15.738281 44.257812 15.765625 44.535156 15.820312 C 44.8125 15.875 45.082031 15.957031 45.34375 16.066406 C 45.605469 16.171875 45.851562 16.304688 46.085938 16.457031 C 46.324219 16.613281 46.539062 16.792969 46.738281 16.988281 C 46.9375 17.1875 47.117188 17.402344 47.273438 17.636719 C 47.433594 17.867188 47.5625 18.113281 47.671875 18.371094 C 47.78125 18.628906 47.863281 18.898438 47.917969 19.171875 C 47.972656 19.445312 48 19.722656 48 20.003906 Z M 48 20.003906 " fill-opacity="1" fill-rule="nonzero"/></g><g clip-path="url(#4dcbe99d63)"><path fill="#753fce" d="M 46.070312 32.953125 L 30.882812 17.90625 C 26.804688 13.863281 15.9375 18.550781 19.65625 22.238281 L 30.578125 33.0625 C 30.882812 33.363281 31.15625 33.695312 31.398438 34.050781 C 31.636719 34.40625 31.839844 34.78125 32.007812 35.175781 C 32.171875 35.574219 32.296875 35.980469 32.382812 36.402344 C 32.464844 36.820312 32.507812 37.246094 32.507812 37.671875 C 32.507812 38.101562 32.464844 38.527344 32.382812 38.945312 C 32.296875 39.367188 32.171875 39.773438 32.007812 40.167969 C 31.839844 40.566406 31.636719 40.941406 31.398438 41.296875 C 31.15625 41.652344 30.882812 41.980469 30.578125 42.285156 L 19.664062 53.101562 C 16.335938 56.394531 26.84375 61.253906 30.882812 57.253906 L 46.070312 42.207031 C 46.378906 41.90625 46.652344 41.574219 46.894531 41.21875 C 47.136719 40.859375 47.339844 40.484375 47.507812 40.085938 C 47.671875 39.691406 47.800781 39.28125 47.882812 38.859375 C 47.96875 38.4375 48.011719 38.011719 48.011719 37.582031 C 48.011719 37.152344 47.96875 36.726562 47.882812 36.304688 C 47.800781 35.882812 47.671875 35.472656 47.507812 35.074219 C 47.339844 34.679688 47.136719 34.300781 46.894531 33.945312 C 46.652344 33.589844 46.378906 33.257812 46.070312 32.953125 Z M 46.070312 32.953125 " fill-opacity="1" fill-rule="nonzero"/></g><g clip-path="url(#1efb594c4f)"><path fill="#3c47dc" d="M 46.070312 32.953125 L 30.882812 17.90625 C 26.804688 13.863281 15.9375 18.550781 19.65625 22.238281 L 30.578125 33.0625 C 31.664062 34.136719 32.292969 35.429688 32.460938 36.941406 C 36.226562 41.316406 39.351562 45.570312 40.003906 48.21875 L 46.078125 42.199219 C 46.386719 41.894531 46.660156 41.5625 46.902344 41.207031 C 47.140625 40.851562 47.34375 40.472656 47.511719 40.078125 C 47.675781 39.679688 47.800781 39.269531 47.886719 38.851562 C 47.96875 38.429688 48.011719 38.003906 48.011719 37.574219 C 48.011719 37.144531 47.96875 36.71875 47.882812 36.296875 C 47.796875 35.878906 47.671875 35.46875 47.503906 35.074219 C 47.339844 34.675781 47.132812 34.300781 46.894531 33.945312 C 46.652344 33.585938 46.375 33.257812 46.070312 32.953125 Z M 46.070312 32.953125 " fill-opacity="1" fill-rule="nonzero"/></g><g fill="#ffffff" fill-opacity="1"><g transform="translate(55.103549, 45.968365)"><g><path d="M 1.65625 0 C 1.445312 0 1.226562 -0.273438 1 -0.828125 C 0.78125 -1.390625 0.671875 -1.851562 0.671875 -2.21875 C 0.671875 -2.320312 0.6875 -2.40625 0.71875 -2.46875 L 9.109375 -14.234375 L 2.15625 -14.234375 C 1.882812 -14.234375 1.691406 -14.332031 1.578125 -14.53125 C 1.460938 -14.726562 1.40625 -15.046875 1.40625 -15.484375 L 1.40625 -16.265625 C 1.40625 -16.691406 1.460938 -17.003906 1.578125 -17.203125 C 1.691406 -17.410156 1.882812 -17.515625 2.15625 -17.515625 L 13.578125 -17.515625 C 13.765625 -17.515625 13.96875 -17.222656 14.1875 -16.640625 C 14.40625 -16.054688 14.515625 -15.578125 14.515625 -15.203125 C 14.515625 -15.109375 14.503906 -15.046875 14.484375 -15.015625 L 6.125 -3.28125 L 13.765625 -3.28125 C 14.023438 -3.28125 14.210938 -3.175781 14.328125 -2.96875 C 14.453125 -2.769531 14.515625 -2.457031 14.515625 -2.03125 L 14.515625 -1.25 C 14.515625 -0.8125 14.453125 -0.492188 14.328125 -0.296875 C 14.210938 -0.0976562 14.023438 0 13.765625 0 Z M 1.65625 0 "/></g></g></g><g fill="#ffffff" fill-opacity="1"><g transform="translate(70.511204, 45.968365)"><g><path d="M 7.578125 0.203125 C 5.378906 0.203125 3.738281 -0.382812 2.65625 -1.5625 C 1.582031 -2.738281 1.046875 -4.367188 1.046875 -6.453125 C 1.046875 -8.804688 1.582031 -10.53125 2.65625 -11.625 C 3.738281 -12.726562 5.226562 -13.28125 7.125 -13.28125 C 8.976562 -13.28125 10.34375 -12.679688 11.21875 -11.484375 C 12.09375 -10.285156 12.53125 -8.734375 12.53125 -6.828125 C 12.53125 -6.628906 12.359375 -6.332031 12.015625 -5.9375 C 11.671875 -5.550781 11.414062 -5.359375 11.25 -5.359375 L 4.875 -5.359375 C 4.957031 -4.398438 5.238281 -3.722656 5.71875 -3.328125 C 6.207031 -2.929688 6.882812 -2.734375 7.75 -2.734375 C 8.21875 -2.734375 8.644531 -2.785156 9.03125 -2.890625 C 9.414062 -2.992188 9.816406 -3.128906 10.234375 -3.296875 C 10.492188 -3.429688 10.675781 -3.5 10.78125 -3.5 C 10.945312 -3.5 11.132812 -3.378906 11.34375 -3.140625 C 11.550781 -2.898438 11.722656 -2.625 11.859375 -2.3125 C 12.003906 -2 12.078125 -1.757812 12.078125 -1.59375 C 12.078125 -1.21875 11.816406 -0.890625 11.296875 -0.609375 C 10.785156 -0.335938 10.171875 -0.132812 9.453125 0 C 8.734375 0.132812 8.109375 0.203125 7.578125 0.203125 Z M 8.9375 -7.828125 C 8.9375 -8.597656 8.785156 -9.210938 8.484375 -9.671875 C 8.179688 -10.128906 7.726562 -10.359375 7.125 -10.359375 C 5.894531 -10.359375 5.144531 -9.515625 4.875 -7.828125 Z M 8.9375 -7.828125 "/></g></g></g><g fill="#ffffff" fill-opacity="1"><g transform="translate(83.992902, 45.968365)"><g><path d="M 3.046875 0.046875 C 2.046875 0.046875 1.546875 -0.21875 1.546875 -0.75 L 1.546875 -8.6875 C 1.546875 -9.414062 1.523438 -9.972656 1.484375 -10.359375 C 1.441406 -10.753906 1.390625 -11.195312 1.328125 -11.6875 C 1.273438 -11.914062 1.25 -12.085938 1.25 -12.203125 C 1.25 -12.472656 1.585938 -12.675781 2.265625 -12.8125 C 2.941406 -12.945312 3.535156 -13.015625 4.046875 -13.015625 C 4.347656 -13.015625 4.554688 -12.898438 4.671875 -12.671875 C 4.796875 -12.441406 4.882812 -12.191406 4.9375 -11.921875 C 5 -11.660156 5.035156 -11.476562 5.046875 -11.375 C 5.453125 -11.914062 5.988281 -12.367188 6.65625 -12.734375 C 7.320312 -13.097656 8.03125 -13.28125 8.78125 -13.28125 C 10.03125 -13.28125 10.953125 -12.953125 11.546875 -12.296875 C 12.148438 -11.640625 12.453125 -10.617188 12.453125 -9.234375 L 12.453125 -0.75 C 12.453125 -0.21875 11.953125 0.046875 10.953125 0.046875 L 10.25 0.046875 C 9.25 0.046875 8.75 -0.21875 8.75 -0.75 L 8.75 -8.6875 C 8.75 -9.195312 8.632812 -9.582031 8.40625 -9.84375 C 8.175781 -10.101562 7.789062 -10.234375 7.25 -10.234375 C 6.800781 -10.234375 6.40625 -10.085938 6.0625 -9.796875 C 5.71875 -9.503906 5.445312 -9.164062 5.25 -8.78125 L 5.25 -0.75 C 5.25 -0.21875 4.75 0.046875 3.75 0.046875 Z M 3.046875 0.046875 "/></g></g></g><g fill="#ffffff" fill-opacity="1"><g transform="translate(97.924818, 45.968365)"><g><path d="M 4.921875 0.203125 C 3.890625 0.203125 2.941406 0.046875 2.078125 -0.265625 C 1.210938 -0.585938 0.78125 -1 0.78125 -1.5 C 0.78125 -1.832031 0.9375 -2.234375 1.25 -2.703125 C 1.5625 -3.179688 1.84375 -3.421875 2.09375 -3.421875 C 2.226562 -3.421875 2.414062 -3.359375 2.65625 -3.234375 C 3 -3.078125 3.316406 -2.953125 3.609375 -2.859375 C 3.898438 -2.773438 4.238281 -2.734375 4.625 -2.734375 C 5.09375 -2.734375 5.453125 -2.820312 5.703125 -3 C 5.953125 -3.1875 6.078125 -3.445312 6.078125 -3.78125 C 6.078125 -4.082031 5.984375 -4.320312 5.796875 -4.5 C 5.617188 -4.6875 5.421875 -4.828125 5.203125 -4.921875 C 4.984375 -5.023438 4.554688 -5.191406 3.921875 -5.421875 C 3.078125 -5.753906 2.390625 -6.1875 1.859375 -6.71875 C 1.335938 -7.257812 1.078125 -8.082031 1.078125 -9.1875 C 1.078125 -10.46875 1.484375 -11.46875 2.296875 -12.1875 C 3.117188 -12.914062 4.226562 -13.28125 5.625 -13.28125 C 6.507812 -13.28125 7.351562 -13.15625 8.15625 -12.90625 C 8.96875 -12.65625 9.375 -12.296875 9.375 -11.828125 C 9.375 -11.515625 9.25 -11.109375 9 -10.609375 C 8.75 -10.109375 8.519531 -9.859375 8.3125 -9.859375 C 8.238281 -9.859375 7.992188 -9.941406 7.578125 -10.109375 C 7.160156 -10.285156 6.6875 -10.375 6.15625 -10.375 C 5.269531 -10.375 4.828125 -10.082031 4.828125 -9.5 C 4.828125 -9.132812 4.972656 -8.851562 5.265625 -8.65625 C 5.554688 -8.457031 6.007812 -8.234375 6.625 -7.984375 C 6.726562 -7.929688 6.882812 -7.863281 7.09375 -7.78125 C 7.3125 -7.695312 7.5 -7.613281 7.65625 -7.53125 C 8.320312 -7.207031 8.847656 -6.773438 9.234375 -6.234375 C 9.628906 -5.691406 9.828125 -4.972656 9.828125 -4.078125 C 9.828125 -2.773438 9.394531 -1.734375 8.53125 -0.953125 C 7.664062 -0.179688 6.460938 0.203125 4.921875 0.203125 Z M 4.921875 0.203125 "/></g></g></g><g fill="#ffffff" fill-opacity="1"><g transform="translate(108.254947, 45.968365)"><g/></g></g><g fill="#ffffff" fill-opacity="1"><g transform="translate(114.257927, 45.968365)"><g><path d="M 5.28125 0.046875 C 4.457031 0.046875 4 -0.125 3.90625 -0.46875 L -0.046875 -16.53125 C -0.078125 -16.632812 -0.09375 -16.757812 -0.09375 -16.90625 C -0.09375 -17.34375 0.421875 -17.5625 1.453125 -17.5625 L 2.09375 -17.5625 C 3.101562 -17.5625 3.664062 -17.300781 3.78125 -16.78125 L 5.65625 -8.734375 L 6.15625 -6.453125 C 6.207031 -6.171875 6.296875 -5.726562 6.421875 -5.125 C 6.503906 -5.644531 6.617188 -6.179688 6.765625 -6.734375 C 6.910156 -7.296875 7.003906 -7.671875 7.046875 -7.859375 C 7.085938 -8.003906 7.128906 -8.148438 7.171875 -8.296875 C 7.210938 -8.453125 7.25 -8.597656 7.28125 -8.734375 L 9.328125 -17.03125 C 9.378906 -17.226562 9.515625 -17.363281 9.734375 -17.4375 C 9.960938 -17.519531 10.285156 -17.5625 10.703125 -17.5625 L 11.65625 -17.5625 C 12.070312 -17.5625 12.390625 -17.519531 12.609375 -17.4375 C 12.835938 -17.363281 12.976562 -17.226562 13.03125 -17.03125 L 15.015625 -8.734375 C 15.296875 -7.515625 15.578125 -6.253906 15.859375 -4.953125 L 16.359375 -7.15625 L 16.703125 -8.734375 L 18.65625 -16.78125 C 18.78125 -17.300781 19.34375 -17.5625 20.34375 -17.5625 L 20.609375 -17.5625 C 21.640625 -17.5625 22.15625 -17.34375 22.15625 -16.90625 C 22.15625 -16.757812 22.140625 -16.632812 22.109375 -16.53125 L 18.03125 -0.46875 C 18 -0.300781 17.851562 -0.171875 17.59375 -0.078125 C 17.332031 0.00390625 17.019531 0.046875 16.65625 0.046875 L 14.828125 0.046875 C 14.460938 0.046875 14.148438 0.00390625 13.890625 -0.078125 C 13.640625 -0.171875 13.492188 -0.300781 13.453125 -0.46875 L 11.40625 -9.125 L 11 -10.828125 L 10.578125 -9.125 L 8.453125 -0.46875 C 8.421875 -0.300781 8.273438 -0.171875 8.015625 -0.078125 C 7.753906 0.00390625 7.441406 0.046875 7.078125 0.046875 Z M 5.28125 0.046875 "/></g></g></g><g fill="#ffffff" fill-opacity="1"><g transform="translate(136.318872, 45.968365)"><g><path d="M 4.75 0.203125 C 3.46875 0.203125 2.53125 -0.128906 1.9375 -0.796875 C 1.34375 -1.460938 1.046875 -2.347656 1.046875 -3.453125 C 1.046875 -4.785156 1.535156 -5.894531 2.515625 -6.78125 C 3.492188 -7.664062 5.398438 -8.109375 8.234375 -8.109375 L 8.234375 -8.9375 C 8.234375 -9.414062 8.078125 -9.769531 7.765625 -10 C 7.453125 -10.238281 6.957031 -10.359375 6.28125 -10.359375 C 5.707031 -10.359375 5.207031 -10.296875 4.78125 -10.171875 C 4.363281 -10.054688 3.988281 -9.925781 3.65625 -9.78125 C 3.320312 -9.632812 3.128906 -9.5625 3.078125 -9.5625 C 2.910156 -9.5625 2.722656 -9.6875 2.515625 -9.9375 C 2.316406 -10.1875 2.144531 -10.472656 2 -10.796875 C 1.851562 -11.117188 1.78125 -11.375 1.78125 -11.5625 C 1.78125 -11.84375 1.988281 -12.113281 2.40625 -12.375 C 2.820312 -12.644531 3.394531 -12.863281 4.125 -13.03125 C 4.863281 -13.195312 5.671875 -13.28125 6.546875 -13.28125 C 8.429688 -13.28125 9.800781 -12.910156 10.65625 -12.171875 C 11.507812 -11.429688 11.9375 -10.410156 11.9375 -9.109375 L 11.9375 -4.40625 C 11.9375 -3.632812 11.957031 -3.046875 12 -2.640625 C 12.039062 -2.242188 12.09375 -1.804688 12.15625 -1.328125 C 12.207031 -1.109375 12.234375 -0.925781 12.234375 -0.78125 C 12.234375 -0.507812 11.894531 -0.304688 11.21875 -0.171875 C 10.539062 -0.0351562 9.945312 0.03125 9.4375 0.03125 C 9.132812 0.03125 8.921875 -0.0859375 8.796875 -0.328125 C 8.679688 -0.578125 8.59375 -0.84375 8.53125 -1.125 C 8.476562 -1.40625 8.445312 -1.597656 8.4375 -1.703125 C 8.332031 -1.515625 8.128906 -1.273438 7.828125 -0.984375 C 7.523438 -0.691406 7.109375 -0.421875 6.578125 -0.171875 C 6.046875 0.078125 5.4375 0.203125 4.75 0.203125 Z M 5.984375 -2.734375 C 6.441406 -2.734375 6.878906 -2.878906 7.296875 -3.171875 C 7.722656 -3.472656 8.035156 -3.847656 8.234375 -4.296875 L 8.234375 -5.671875 C 5.898438 -5.671875 4.734375 -5.054688 4.734375 -3.828125 C 4.734375 -3.492188 4.835938 -3.226562 5.046875 -3.03125 C 5.265625 -2.832031 5.578125 -2.734375 5.984375 -2.734375 Z M 5.984375 -2.734375 "/></g></g></g><g fill="#ffffff" fill-opacity="1"><g transform="translate(149.950643, 45.968365)"><g><path d="M 5.234375 0.203125 C 2.796875 0.203125 1.578125 -1.148438 1.578125 -3.859375 L 1.578125 -18.0625 C 1.578125 -18.59375 2.078125 -18.859375 3.078125 -18.859375 L 3.78125 -18.859375 C 4.78125 -18.859375 5.28125 -18.59375 5.28125 -18.0625 L 5.28125 -3.796875 C 5.28125 -3.421875 5.347656 -3.148438 5.484375 -2.984375 C 5.628906 -2.816406 5.859375 -2.734375 6.171875 -2.734375 C 6.253906 -2.734375 6.367188 -2.75 6.515625 -2.78125 C 6.660156 -2.8125 6.773438 -2.828125 6.859375 -2.828125 C 7.003906 -2.828125 7.132812 -2.703125 7.25 -2.453125 C 7.363281 -2.203125 7.453125 -1.925781 7.515625 -1.625 C 7.585938 -1.320312 7.625 -1.125 7.625 -1.03125 C 7.625 -0.207031 6.828125 0.203125 5.234375 0.203125 Z M 5.234375 0.203125 "/></g></g></g><g fill="#ffffff" fill-opacity="1"><g transform="translate(157.379328, 45.968365)"><g><path d="M 5.234375 0.203125 C 2.796875 0.203125 1.578125 -1.148438 1.578125 -3.859375 L 1.578125 -18.0625 C 1.578125 -18.59375 2.078125 -18.859375 3.078125 -18.859375 L 3.78125 -18.859375 C 4.78125 -18.859375 5.28125 -18.59375 5.28125 -18.0625 L 5.28125 -3.796875 C 5.28125 -3.421875 5.347656 -3.148438 5.484375 -2.984375 C 5.628906 -2.816406 5.859375 -2.734375 6.171875 -2.734375 C 6.253906 -2.734375 6.367188 -2.75 6.515625 -2.78125 C 6.660156 -2.8125 6.773438 -2.828125 6.859375 -2.828125 C 7.003906 -2.828125 7.132812 -2.703125 7.25 -2.453125 C 7.363281 -2.203125 7.453125 -1.925781 7.515625 -1.625 C 7.585938 -1.320312 7.625 -1.125 7.625 -1.03125 C 7.625 -0.207031 6.828125 0.203125 5.234375 0.203125 Z M 5.234375 0.203125 "/></g></g></g><g fill="#ffffff" fill-opacity="1"><g transform="translate(164.808013, 45.968365)"><g><path d="M 7.578125 0.203125 C 5.378906 0.203125 3.738281 -0.382812 2.65625 -1.5625 C 1.582031 -2.738281 1.046875 -4.367188 1.046875 -6.453125 C 1.046875 -8.804688 1.582031 -10.53125 2.65625 -11.625 C 3.738281 -12.726562 5.226562 -13.28125 7.125 -13.28125 C 8.976562 -13.28125 10.34375 -12.679688 11.21875 -11.484375 C 12.09375 -10.285156 12.53125 -8.734375 12.53125 -6.828125 C 12.53125 -6.628906 12.359375 -6.332031 12.015625 -5.9375 C 11.671875 -5.550781 11.414062 -5.359375 11.25 -5.359375 L 4.875 -5.359375 C 4.957031 -4.398438 5.238281 -3.722656 5.71875 -3.328125 C 6.207031 -2.929688 6.882812 -2.734375 7.75 -2.734375 C 8.21875 -2.734375 8.644531 -2.785156 9.03125 -2.890625 C 9.414062 -2.992188 9.816406 -3.128906 10.234375 -3.296875 C 10.492188 -3.429688 10.675781 -3.5 10.78125 -3.5 C 10.945312 -3.5 11.132812 -3.378906 11.34375 -3.140625 C 11.550781 -2.898438 11.722656 -2.625 11.859375 -2.3125 C 12.003906 -2 12.078125 -1.757812 12.078125 -1.59375 C 12.078125 -1.21875 11.816406 -0.890625 11.296875 -0.609375 C 10.785156 -0.335938 10.171875 -0.132812 9.453125 0 C 8.734375 0.132812 8.109375 0.203125 7.578125 0.203125 Z M 8.9375 -7.828125 C 8.9375 -8.597656 8.785156 -9.210938 8.484375 -9.671875 C 8.179688 -10.128906 7.726562 -10.359375 7.125 -10.359375 C 5.894531 -10.359375 5.144531 -9.515625 4.875 -7.828125 Z M 8.9375 -7.828125 "/></g></g></g><g fill="#ffffff" fill-opacity="1"><g transform="translate(178.289711, 45.968365)"><g><path d="M 5.578125 0.203125 C 3.140625 0.203125 1.921875 -1.148438 1.921875 -3.859375 L 1.921875 -10.15625 L 1.53125 -10.15625 C 1.257812 -10.15625 1.066406 -10.253906 0.953125 -10.453125 C 0.835938 -10.648438 0.78125 -10.96875 0.78125 -11.40625 L 0.78125 -11.828125 C 0.78125 -12.265625 0.835938 -12.582031 0.953125 -12.78125 C 1.066406 -12.976562 1.257812 -13.078125 1.53125 -13.078125 L 1.921875 -13.078125 L 2.25 -15.453125 C 2.332031 -15.992188 2.785156 -16.265625 3.609375 -16.265625 L 4.375 -16.265625 C 5.207031 -16.265625 5.625 -15.992188 5.625 -15.453125 L 5.625 -13.078125 L 6.859375 -13.078125 C 7.117188 -13.078125 7.304688 -12.976562 7.421875 -12.78125 C 7.546875 -12.582031 7.609375 -12.265625 7.609375 -11.828125 L 7.609375 -11.40625 C 7.609375 -10.96875 7.546875 -10.648438 7.421875 -10.453125 C 7.304688 -10.253906 7.117188 -10.15625 6.859375 -10.15625 L 5.625 -10.15625 L 5.625 -3.796875 C 5.625 -3.421875 5.691406 -3.148438 5.828125 -2.984375 C 5.972656 -2.816406 6.207031 -2.734375 6.53125 -2.734375 C 6.613281 -2.734375 6.722656 -2.75 6.859375 -2.78125 C 7.003906 -2.8125 7.117188 -2.828125 7.203125 -2.828125 C 7.347656 -2.828125 7.476562 -2.703125 7.59375 -2.453125 C 7.71875 -2.203125 7.8125 -1.925781 7.875 -1.625 C 7.945312 -1.320312 7.984375 -1.125 7.984375 -1.03125 C 7.984375 -0.207031 7.179688 0.203125 5.578125 0.203125 Z M 5.578125 0.203125 "/></g></g></g></svg>